<svg xmlns="http://www.w3.org/2000/svg" xmlns:xlink="http://www.w3.org/1999/xlink" x="0" y="0" width="261.3333435058594" height="235.21875" style="
        width:261.3333435058594px;
        height:235.21875px;
        background: #FFF;
        fill: none;
">
        <svg xmlns="http://www.w3.org/2000/svg"/>
        
        <svg xmlns="http://www.w3.org/2000/svg" class="role-diagram-draw-area"><g class="shapes-region" style="stroke: black; fill: none;"><g class="composite-shape"><path class="real" d=" M15,131.08 C15,126.7 18.55,123.16 22.92,123.16 C27.3,123.16 30.84,126.7 30.84,131.08 C30.84,135.45 27.3,139 22.92,139 C18.55,139 15,135.45 15,131.08 Z" style="stroke-width: 1; stroke: rgb(65, 117, 5); stroke-opacity: 1; fill: none; fill-opacity: 1;"/></g><g class="composite-shape"><path class="real" d=" M83.16,131.08 C83.16,126.7 86.7,123.16 91.08,123.16 C95.45,123.16 99,126.7 99,131.08 C99,135.45 95.45,139 91.08,139 C86.7,139 83.16,135.45 83.16,131.08 Z" style="stroke-width: 1; stroke: rgb(65, 117, 5); stroke-opacity: 1; fill: rgb(104, 173, 26); fill-opacity: 1;"/></g><g class="composite-shape"><path class="real" d=" M154,93.08 C154,88.7 157.55,85.16 161.92,85.16 C166.3,85.16 169.84,88.7 169.84,93.08 C169.84,97.45 166.3,101 161.92,101 C157.55,101 154,97.45 154,93.08 Z" style="stroke-width: 1; stroke: rgb(65, 117, 5); stroke-opacity: 1; fill: none; fill-opacity: 1;"/></g><g class="composite-shape"><path class="real" d=" M154.16,177.08 C154.16,172.7 157.7,169.16 162.08,169.16 C166.45,169.16 170,172.7 170,177.08 C170,181.45 166.45,185 162.08,185 C157.7,185 154.16,181.45 154.16,177.08 Z" style="stroke-width: 1; stroke: rgb(65, 117, 5); stroke-opacity: 1; fill: none; fill-opacity: 1;"/></g><g class="arrow-line"><path class="connection real" stroke-dasharray="" d="  M102.67,121.5 L146.24,97.95" style="stroke: rgb(65, 117, 5); stroke-opacity: 1; stroke-width: 1; fill: none; fill-opacity: 1;"/><g stroke="rgb(65,117,5)" stroke-opacity="1" transform="matrix(-0.8797315715528856,0.47547067418831435,-0.47547067418831435,-0.8797315715528856,148,97)" style="stroke: rgb(65, 117, 5); stroke-width: 1;"><path d=" M10.93,-3.29 Q4.96,-0.45 0,0 Q4.96,0.45 10.93,3.29"/></g></g><g class="arrow-line"><path class="connection real" stroke-dasharray="" d="  M101.67,143.5 L148.57,168.56" style="stroke: rgb(65, 117, 5); stroke-opacity: 1; stroke-width: 1; fill: none; fill-opacity: 1;"/><g stroke="rgb(65,117,5)" stroke-opacity="1" transform="matrix(-0.8820446455010915,-0.4711658342270306,0.4711658342270306,-0.8820446455010915,150.3333282470703,169.5)" style="stroke: rgb(65, 117, 5); stroke-width: 1;"><path d=" M10.93,-3.29 Q4.96,-0.45 0,0 Q4.96,0.45 10.93,3.29"/></g></g><g class="composite-shape"><path class="real" d=" M223,62.08 C223,57.7 226.55,54.16 230.92,54.16 C235.3,54.16 238.84,57.7 238.84,62.08 C238.84,66.45 235.3,70 230.92,70 C226.55,70 223,66.45 223,62.08 Z" style="stroke-width: 1; stroke: rgb(65, 117, 5); stroke-opacity: 1; fill: rgb(104, 173, 26); fill-opacity: 1;"/></g><g class="composite-shape"><path class="real" d=" M223.16,116.08 C223.16,111.7 226.7,108.16 231.08,108.16 C235.45,108.16 239,111.7 239,116.08 C239,120.45 235.45,124 231.08,124 C226.7,124 223.16,120.45 223.16,116.08 Z" style="stroke-width: 1; stroke: rgb(65, 117, 5); stroke-opacity: 1; fill: rgb(104, 173, 26); fill-opacity: 1;"/></g><g class="arrow-line"><path class="connection real" stroke-dasharray="" d="  M177,86 L215.21,66.89" style="stroke: rgb(65, 117, 5); stroke-opacity: 1; stroke-width: 1; fill: none; fill-opacity: 1;"/><g stroke="rgb(65,117,5)" stroke-opacity="1" transform="matrix(-0.894388560370084,0.4472908484187093,-0.4472908484187093,-0.894388560370084,216.99999999999997,66)" style="stroke: rgb(65, 117, 5); stroke-width: 1;"><path d=" M10.93,-3.29 Q4.96,-0.45 0,0 Q4.96,0.45 10.93,3.29"/></g></g><g class="arrow-line"><path class="connection real" stroke-dasharray="" d="  M177.33,99.5 L217.11,113.34" style="stroke: rgb(65, 117, 5); stroke-opacity: 1; stroke-width: 1; fill: none; fill-opacity: 1;"/><g stroke="rgb(65,117,5)" stroke-opacity="1" transform="matrix(-0.9444337539113709,-0.32870181696010775,0.32870181696010775,-0.9444337539113709,218.99999999999997,114)" style="stroke: rgb(65, 117, 5); stroke-width: 1;"><path d=" M10.93,-3.29 Q4.96,-0.45 0,0 Q4.96,0.45 10.93,3.29"/></g></g><g class="composite-shape"><path class="real" d=" M224,148.08 C224,143.7 227.55,140.16 231.92,140.16 C236.3,140.16 239.84,143.7 239.84,148.08 C239.84,152.45 236.3,156 231.92,156 C227.55,156 224,152.45 224,148.08 Z" style="stroke-width: 1; stroke: rgb(65, 117, 5); stroke-opacity: 1; fill: rgb(104, 173, 26); fill-opacity: 1;"/></g><g class="composite-shape"><path class="real" d=" M224.16,202.08 C224.16,197.7 227.7,194.16 232.08,194.16 C236.45,194.16 240,197.7 240,202.08 C240,206.45 236.45,210 232.08,210 C227.7,210 224.16,206.45 224.16,202.08 Z" style="stroke-width: 1; stroke: rgb(65, 117, 5); stroke-opacity: 1; fill: rgb(104, 173, 26); fill-opacity: 1;"/></g><g class="arrow-line"><path class="connection real" stroke-dasharray="" d="  M178,172 L216.21,152.89" style="stroke: rgb(65, 117, 5); stroke-opacity: 1; stroke-width: 1; fill: none; fill-opacity: 1;"/><g stroke="rgb(65,117,5)" stroke-opacity="1" transform="matrix(-0.894388560370084,0.4472908484187093,-0.4472908484187093,-0.894388560370084,218,152)" style="stroke: rgb(65, 117, 5); stroke-width: 1;"><path d=" M10.93,-3.29 Q4.96,-0.45 0,0 Q4.96,0.45 10.93,3.29"/></g></g><g class="arrow-line"><path class="connection real" stroke-dasharray="" d="  M178.33,185.5 L218.11,199.34" style="stroke: rgb(65, 117, 5); stroke-opacity: 1; stroke-width: 1; fill: none; fill-opacity: 1;"/><g stroke="rgb(65,117,5)" stroke-opacity="1" transform="matrix(-0.9444337539113709,-0.32870181696010775,0.32870181696010775,-0.9444337539113709,220.00000000000003,200)" style="stroke: rgb(65, 117, 5); stroke-width: 1;"><path d=" M10.93,-3.29 Q4.96,-0.45 0,0 Q4.96,0.45 10.93,3.29"/></g></g><g class="arrow-line"><path class="connection real" stroke-dasharray="" d="  M35.16,131.08 L75.67,131.48" style="stroke: rgb(65, 117, 5); stroke-opacity: 1; stroke-width: 1; fill: none; fill-opacity: 1;"/><g stroke="rgb(65,117,5)" stroke-opacity="1" transform="matrix(-0.9999505153082835,-0.009948212638374506,0.009948212638374506,-0.9999505153082835,77.66665649414062,131.49999999999997)" style="stroke: rgb(65, 117, 5); stroke-width: 1;"><path d=" M10.93,-3.29 Q4.96,-0.45 0,0 Q4.96,0.45 10.93,3.29"/></g></g><g/></g><g/><g/><g/></svg>
        <svg xmlns="http://www.w3.org/2000/svg" xmlns:xlink="http://www.w3.org/1999/xlink" width="260" height="233.8854217529297" style="width:260px;height:233.8854217529297px;font-family:Asana-Math, Asana;background:#FFF;"><g><g><g><g transform="matrix(1,0,0,1,8.666656494140625,101)"><path transform="matrix(0.017,0,0,-0.017,0,0)" d="M310 96L239 624C237 646 241 661 281 662L323 664L323 692L282 691C245 690 217 689 199 689C181 689 153 690 116 691L75 692L75 664L100 662C144 659 152 651 159 614L247 -8L296 -8L674 611C699 651 707 658 736 662L754 664L754 692L724 691C697 690 674 689 658 689C648 689 621 690 580 691L534 692L534 664L560 662C598 659 617 649 617 630C617 619 613 608 601 588Z" stroke="rgb(51,89,8)" stroke-opacity="1" stroke-width="8" fill="rgb(51,89,8)" fill-opacity="1"></path></g></g><g><g transform="matrix(1,0,0,1,20.927093505859375,101.66668701171875)"><path transform="matrix(0.017,0,0,-0.017,0,0)" d="M146 266C146 526 243 632 301 700L282 726C225 675 60 542 60 266C60 159 85 58 133 -32C168 -99 200 -138 282 -215L301 -194C255 -137 146 -15 146 266Z" stroke="rgb(51,89,8)" stroke-opacity="1" stroke-width="8" fill="rgb(51,89,8)" fill-opacity="1"></path></g></g><g><g transform="matrix(1,0,0,1,26.572906494140625,101)"><path transform="matrix(0.017,0,0,-0.017,0,0)" d="M31 148C26 97 20 62 9 16C47 -2 81 -11 116 -11C165 -11 211 7 262 47C313 87 334 124 334 174C334 228 302 257 228 271L185 279C125 290 106 307 106 348C106 401 151 442 208 442C249 442 287 424 303 397L303 342L326 342C330 377 334 404 345 455C306 474 278 482 245 482C193 482 132 452 84 404C58 377 47 352 47 316C47 260 78 228 144 215L207 203C251 195 267 177 267 138C267 73 221 29 150 29C115 29 84 40 56 64L56 148Z" stroke="rgb(51,89,8)" stroke-opacity="1" stroke-width="8" fill="rgb(51,89,8)" fill-opacity="1"></path></g></g><g><g transform="matrix(1,0,0,1,33.177093505859375,101.66668701171875)"><path transform="matrix(0.017,0,0,-0.017,0,0)" d="M51 726L32 700C87 636 187 526 187 266C187 -10 83 -131 32 -194L51 -215C104 -165 273 -23 273 265C273 542 108 675 51 726Z" stroke="rgb(51,89,8)" stroke-opacity="1" stroke-width="8" fill="rgb(51,89,8)" fill-opacity="1"></path></g></g></g></g><g><g><g><g transform="matrix(1,0,0,1,148.66665649414062,71)"><path transform="matrix(0.017,0,0,-0.017,0,0)" d="M310 96L239 624C237 646 241 661 281 662L323 664L323 692L282 691C245 690 217 689 199 689C181 689 153 690 116 691L75 692L75 664L100 662C144 659 152 651 159 614L247 -8L296 -8L674 611C699 651 707 658 736 662L754 664L754 692L724 691C697 690 674 689 658 689C648 689 621 690 580 691L534 692L534 664L560 662C598 659 617 649 617 630C617 619 613 608 601 588Z" stroke="rgb(51,89,8)" stroke-opacity="1" stroke-width="8" fill="rgb(51,89,8)" fill-opacity="1"></path></g></g><g><g transform="matrix(1,0,0,1,160.92709350585938,71.66668701171875)"><path transform="matrix(0.017,0,0,-0.017,0,0)" d="M146 266C146 526 243 632 301 700L282 726C225 675 60 542 60 266C60 159 85 58 133 -32C168 -99 200 -138 282 -215L301 -194C255 -137 146 -15 146 266Z" stroke="rgb(51,89,8)" stroke-opacity="1" stroke-width="8" fill="rgb(51,89,8)" fill-opacity="1"></path></g></g><g><g transform="matrix(1,0,0,1,166.57290649414062,71)"><path transform="matrix(0.017,0,0,-0.017,0,0)" d="M31 148C26 97 20 62 9 16C47 -2 81 -11 116 -11C165 -11 211 7 262 47C313 87 334 124 334 174C334 228 302 257 228 271L185 279C125 290 106 307 106 348C106 401 151 442 208 442C249 442 287 424 303 397L303 342L326 342C330 377 334 404 345 455C306 474 278 482 245 482C193 482 132 452 84 404C58 377 47 352 47 316C47 260 78 228 144 215L207 203C251 195 267 177 267 138C267 73 221 29 150 29C115 29 84 40 56 64L56 148ZM492 470C549 543 587 610 621 696L608 709C572 697 562 694 511 679C505 599 481 533 433 456L448 446Z" stroke="rgb(51,89,8)" stroke-opacity="1" stroke-width="8" fill="rgb(51,89,8)" fill-opacity="1"></path></g></g><g><g transform="matrix(1,0,0,1,177.88540649414062,71.66668701171875)"><path transform="matrix(0.017,0,0,-0.017,0,0)" d="M51 726L32 700C87 636 187 526 187 266C187 -10 83 -131 32 -194L51 -215C104 -165 273 -23 273 265C273 542 108 675 51 726Z" stroke="rgb(51,89,8)" stroke-opacity="1" stroke-width="8" fill="rgb(51,89,8)" fill-opacity="1"></path></g></g></g></g><g><g><g><g transform="matrix(1,0,0,1,71.66665649414062,101)"><path transform="matrix(0.017,0,0,-0.017,0,0)" d="M151 -172C151 -95 175 -59 228 -59C257 -59 285 -67 324 -88L469 -164C529 -195 547 -201 587 -201C662 -201 698 -158 708 -61L683 -61C677 -115 655 -140 615 -140C598 -140 579 -135 553 -125L317 -29C292 -19 274 -15 251 -15C177 -15 126 -66 126 -142C126 -144 126 -151 127 -159ZM748 425C748 603 644 706 464 706C227 706 53 523 53 272C53 83 147 -18 323 -18C595 -18 748 207 748 425ZM660 409C660 221 571 24 360 24C216 24 141 110 141 277C141 425 199 664 433 664C549 664 660 610 660 409Z" stroke="rgb(51,89,8)" stroke-opacity="1" stroke-width="8" fill="rgb(51,89,8)" fill-opacity="1"></path></g></g><g><g transform="matrix(1,0,0,1,84.88540649414062,101.66668701171875)"><path transform="matrix(0.017,0,0,-0.017,0,0)" d="M146 266C146 526 243 632 301 700L282 726C225 675 60 542 60 266C60 159 85 58 133 -32C168 -99 200 -138 282 -215L301 -194C255 -137 146 -15 146 266Z" stroke="rgb(51,89,8)" stroke-opacity="1" stroke-width="8" fill="rgb(51,89,8)" fill-opacity="1"></path></g></g><g><g transform="matrix(1,0,0,1,90.53125,101)"><path transform="matrix(0.017,0,0,-0.017,0,0)" d="M31 148C26 97 20 62 9 16C47 -2 81 -11 116 -11C165 -11 211 7 262 47C313 87 334 124 334 174C334 228 302 257 228 271L185 279C125 290 106 307 106 348C106 401 151 442 208 442C249 442 287 424 303 397L303 342L326 342C330 377 334 404 345 455C306 474 278 482 245 482C193 482 132 452 84 404C58 377 47 352 47 316C47 260 78 228 144 215L207 203C251 195 267 177 267 138C267 73 221 29 150 29C115 29 84 40 56 64L56 148Z" stroke="rgb(51,89,8)" stroke-opacity="1" stroke-width="8" fill="rgb(51,89,8)" fill-opacity="1"></path></g></g><g><g transform="matrix(1,0,0,1,97.13540649414062,101)"><path transform="matrix(0.017,0,0,-0.017,0,0)" d="M204 123C177 114 159 108 106 93C99 17 74 -48 16 -144L30 -155L71 -136C152 -31 190 32 218 109Z" stroke="rgb(51,89,8)" stroke-opacity="1" stroke-width="8" fill="rgb(51,89,8)" fill-opacity="1"></path></g></g><g><g transform="matrix(1,0,0,1,104.77084350585938,101)"><path transform="matrix(0.017,0,0,-0.017,0,0)" d="M271 204L242 77C238 60 236 42 236 26C236 4 245 -9 260 -9C283 -9 324 17 406 85L399 106C375 86 346 59 324 59C315 59 309 68 309 82C309 87 309 90 310 93L402 472L392 481L359 463C318 478 301 482 274 482C246 482 226 477 199 464C137 433 104 403 79 354C35 265 4 145 4 67C4 23 19 -11 38 -11C75 -11 155 41 271 204ZM319 414C297 305 278 253 244 201C187 117 126 59 94 59C82 59 76 72 76 99C76 163 104 280 139 360C163 415 186 433 234 433C257 433 275 429 319 414Z" stroke="rgb(51,89,8)" stroke-opacity="1" stroke-width="8" fill="rgb(51,89,8)" fill-opacity="1"></path></g></g><g><g transform="matrix(1,0,0,1,112.30209350585938,101.66668701171875)"><path transform="matrix(0.017,0,0,-0.017,0,0)" d="M51 726L32 700C87 636 187 526 187 266C187 -10 83 -131 32 -194L51 -215C104 -165 273 -23 273 265C273 542 108 675 51 726Z" stroke="rgb(51,89,8)" stroke-opacity="1" stroke-width="8" fill="rgb(51,89,8)" fill-opacity="1"></path></g></g></g></g><g><g><g><g transform="matrix(1,0,0,1,199.66665649414062,41)"><path transform="matrix(0.017,0,0,-0.017,0,0)" d="M151 -172C151 -95 175 -59 228 -59C257 -59 285 -67 324 -88L469 -164C529 -195 547 -201 587 -201C662 -201 698 -158 708 -61L683 -61C677 -115 655 -140 615 -140C598 -140 579 -135 553 -125L317 -29C292 -19 274 -15 251 -15C177 -15 126 -66 126 -142C126 -144 126 -151 127 -159ZM748 425C748 603 644 706 464 706C227 706 53 523 53 272C53 83 147 -18 323 -18C595 -18 748 207 748 425ZM660 409C660 221 571 24 360 24C216 24 141 110 141 277C141 425 199 664 433 664C549 664 660 610 660 409Z" stroke="rgb(51,89,8)" stroke-opacity="1" stroke-width="8" fill="rgb(51,89,8)" fill-opacity="1"></path></g></g><g><g transform="matrix(1,0,0,1,212.88540649414062,41.66668701171875)"><path transform="matrix(0.017,0,0,-0.017,0,0)" d="M146 266C146 526 243 632 301 700L282 726C225 675 60 542 60 266C60 159 85 58 133 -32C168 -99 200 -138 282 -215L301 -194C255 -137 146 -15 146 266Z" stroke="rgb(51,89,8)" stroke-opacity="1" stroke-width="8" fill="rgb(51,89,8)" fill-opacity="1"></path></g></g><g><g transform="matrix(1,0,0,1,218.53128051757812,41)"><path transform="matrix(0.017,0,0,-0.017,0,0)" d="M31 148C26 97 20 62 9 16C47 -2 81 -11 116 -11C165 -11 211 7 262 47C313 87 334 124 334 174C334 228 302 257 228 271L185 279C125 290 106 307 106 348C106 401 151 442 208 442C249 442 287 424 303 397L303 342L326 342C330 377 334 404 345 455C306 474 278 482 245 482C193 482 132 452 84 404C58 377 47 352 47 316C47 260 78 228 144 215L207 203C251 195 267 177 267 138C267 73 221 29 150 29C115 29 84 40 56 64L56 148ZM492 470C549 543 587 610 621 696L608 709C572 697 562 694 511 679C505 599 481 533 433 456L448 446Z" stroke="rgb(51,89,8)" stroke-opacity="1" stroke-width="8" fill="rgb(51,89,8)" fill-opacity="1"></path></g></g><g><g transform="matrix(1,0,0,1,229.84378051757812,41)"><path transform="matrix(0.017,0,0,-0.017,0,0)" d="M204 123C177 114 159 108 106 93C99 17 74 -48 16 -144L30 -155L71 -136C152 -31 190 32 218 109Z" stroke="rgb(51,89,8)" stroke-opacity="1" stroke-width="8" fill="rgb(51,89,8)" fill-opacity="1"></path></g></g><g><g transform="matrix(1,0,0,1,237.47915649414062,41)"><path transform="matrix(0.017,0,0,-0.017,0,0)" d="M271 204L242 77C238 60 236 42 236 26C236 4 245 -9 260 -9C283 -9 324 17 406 85L399 106C375 86 346 59 324 59C315 59 309 68 309 82C309 87 309 90 310 93L402 472L392 481L359 463C318 478 301 482 274 482C246 482 226 477 199 464C137 433 104 403 79 354C35 265 4 145 4 67C4 23 19 -11 38 -11C75 -11 155 41 271 204ZM319 414C297 305 278 253 244 201C187 117 126 59 94 59C82 59 76 72 76 99C76 163 104 280 139 360C163 415 186 433 234 433C257 433 275 429 319 414ZM547 470C604 543 642 610 676 696L663 709C627 697 617 694 566 679C560 599 536 533 488 456L503 446Z" stroke="rgb(51,89,8)" stroke-opacity="1" stroke-width="8" fill="rgb(51,89,8)" fill-opacity="1"></path></g></g><g><g transform="matrix(1,0,0,1,249.72915649414062,41.66668701171875)"><path transform="matrix(0.017,0,0,-0.017,0,0)" d="M51 726L32 700C87 636 187 526 187 266C187 -10 83 -131 32 -194L51 -215C104 -165 273 -23 273 265C273 542 108 675 51 726Z" stroke="rgb(51,89,8)" stroke-opacity="1" stroke-width="8" fill="rgb(51,89,8)" fill-opacity="1"></path></g></g></g></g><g><g><g><g transform="matrix(1,0,0,1,51.666656494140625,121)"><path transform="matrix(0.017,0,0,-0.017,0,0)" d="M271 204L242 77C238 60 236 42 236 26C236 4 245 -9 260 -9C283 -9 324 17 406 85L399 106C375 86 346 59 324 59C315 59 309 68 309 82C309 87 309 90 310 93L402 472L392 481L359 463C318 478 301 482 274 482C246 482 226 477 199 464C137 433 104 403 79 354C35 265 4 145 4 67C4 23 19 -11 38 -11C75 -11 155 41 271 204ZM319 414C297 305 278 253 244 201C187 117 126 59 94 59C82 59 76 72 76 99C76 163 104 280 139 360C163 415 186 433 234 433C257 433 275 429 319 414Z" stroke="rgb(51,89,8)" stroke-opacity="1" stroke-width="8" fill="rgb(51,89,8)" fill-opacity="1"></path></g></g></g></g><g><g><g><g transform="matrix(1,0,0,1,191.66665649414062,71)"><path transform="matrix(0.017,0,0,-0.017,0,0)" d="M271 204L242 77C238 60 236 42 236 26C236 4 245 -9 260 -9C283 -9 324 17 406 85L399 106C375 86 346 59 324 59C315 59 309 68 309 82C309 87 309 90 310 93L402 472L392 481L359 463C318 478 301 482 274 482C246 482 226 477 199 464C137 433 104 403 79 354C35 265 4 145 4 67C4 23 19 -11 38 -11C75 -11 155 41 271 204ZM319 414C297 305 278 253 244 201C187 117 126 59 94 59C82 59 76 72 76 99C76 163 104 280 139 360C163 415 186 433 234 433C257 433 275 429 319 414ZM547 470C604 543 642 610 676 696L663 709C627 697 617 694 566 679C560 599 536 533 488 456L503 446Z" stroke="rgb(51,89,8)" stroke-opacity="1" stroke-width="8" fill="rgb(51,89,8)" fill-opacity="1"></path></g></g></g></g></svg>
</svg>
