<svg xmlns="http://www.w3.org/2000/svg" xmlns:xlink="http://www.w3.org/1999/xlink" x="0" y="0" width="261.333349609375" height="136" style="
        width:261.333349609375px;
        height:136px;
        background: #FFF;
        fill: none;
">
        <svg xmlns="http://www.w3.org/2000/svg"/>
        
        <svg xmlns="http://www.w3.org/2000/svg" class="role-diagram-draw-area"><g class="shapes-region" style="stroke: black; fill: none;"><g class="grouped-shape"><g class="arrow-line"><path class="connection real" stroke-dasharray="" d="  M84,56 C124.79,26.3 143.23,26.01 182.79,55.11" style="stroke: rgb(0, 0, 0); stroke-width: 1; fill: none; fill-opacity: 1;"/><g stroke="#000" transform="matrix(-0.8029215238344815,-0.5960847478029564,0.5960847478029564,-0.8029215238344815,184,56)" style="stroke: rgb(0, 0, 0); stroke-width: 1;"><path d=" M10.93,-3.29 Q4.96,-0.45 0,0 Q4.96,0.45 10.93,3.29"/></g></g><g class="arrow-line"><path class="connection real" stroke-dasharray="" d="  M83.2,81.6 C123.2,111.7 142.41,112 181.99,82.5" style="stroke: rgb(0, 0, 0); stroke-width: 1; fill: none; fill-opacity: 1;"/><g stroke="#000" transform="matrix(-0.7990554615362202,0.601257323771726,-0.601257323771726,-0.7990554615362202,183.2,81.60000000000002)" style="stroke: rgb(0, 0, 0); stroke-width: 1;"><path d=" M10.93,-3.29 Q4.96,-0.45 0,0 Q4.96,0.45 10.93,3.29"/></g></g></g><g/></g><g/><g/><g/></svg>
        <svg xmlns="http://www.w3.org/2000/svg" xmlns:xlink="http://www.w3.org/1999/xlink" width="260" height="134.66667480468755" style="width:260px;height:134.66667480468755px;font-family:Asana-Math, Asana;background:#FFF;"><g><g><g><g transform="matrix(1,0,0,1,75.66667480468749,72)"><path transform="matrix(0.017,0,0,-0.017,0,0)" d="M525 42C469 42 464 125 465 166C466 251 494 333 537 405L599 418C602 435 608 452 613 467C459 461 300 463 145 466C80 467 66 389 47 340C46 332 59 331 63 328L63 332C106 395 130 405 205 405L228 405C188 266 161 129 98 -2L98 -12C118 -6 153 1 170 13C211 141 240 274 268 405L495 405C438 318 397 213 395 108C395 59 410 -15 471 -15C512 -15 568 25 598 51L598 66L586 66L586 67C568 56 548 42 525 42Z" stroke="rgb(0,0,0)" stroke-opacity="1" stroke-width="8" fill="rgb(0,0,0)" fill-opacity="1"></path></g></g></g></g><g><g><g><g transform="matrix(1,0,0,1,175.66669921875,72)"><path transform="matrix(0.017,0,0,-0.017,0,0)" d="M151 -172C151 -95 175 -59 228 -59C257 -59 285 -67 324 -88L469 -164C529 -195 547 -201 587 -201C662 -201 698 -158 708 -61L683 -61C677 -115 655 -140 615 -140C598 -140 579 -135 553 -125L317 -29C292 -19 274 -15 251 -15C177 -15 126 -66 126 -142C126 -144 126 -151 127 -159ZM748 425C748 603 644 706 464 706C227 706 53 523 53 272C53 83 147 -18 323 -18C595 -18 748 207 748 425ZM660 409C660 221 571 24 360 24C216 24 141 110 141 277C141 425 199 664 433 664C549 664 660 610 660 409Z" stroke="rgb(0,0,0)" stroke-opacity="1" stroke-width="8" fill="rgb(0,0,0)" fill-opacity="1"></path></g></g></g></g><g><g><g><g transform="matrix(1,0,0,1,111.66669921875001,51.9)"><path transform="matrix(0.0119,0,0,-0.0119,0,0)" d="M151 -172C151 -95 175 -59 228 -59C257 -59 285 -67 324 -88L469 -164C529 -195 547 -201 587 -201C662 -201 698 -158 708 -61L683 -61C677 -115 655 -140 615 -140C598 -140 579 -135 553 -125L317 -29C292 -19 274 -15 251 -15C177 -15 126 -66 126 -142C126 -144 126 -151 127 -159ZM748 425C748 603 644 706 464 706C227 706 53 523 53 272C53 83 147 -18 323 -18C595 -18 748 207 748 425ZM660 409C660 221 571 24 360 24C216 24 141 110 141 277C141 425 199 664 433 664C549 664 660 610 660 409Z" stroke="rgb(0,0,0)" stroke-opacity="1" stroke-width="8" fill="rgb(0,0,0)" fill-opacity="1"></path></g></g><g><g transform="matrix(1,0,0,1,124.47919921875001,51.9)"><path transform="matrix(0.0119,0,0,-0.0119,0,0)" d="M997 272L791 486L758 452L883 300L859 300C734 300 653 182 546 182C407 182 351 420 179 420C104 420 45 371 -3 317L-3 227C43 282 101 361 180 361C318 361 375 123 547 123C673 123 754 243 860 243L883 243L758 89L791 55Z" stroke="rgb(0,0,0)" stroke-opacity="1" stroke-width="8" fill="rgb(0,0,0)" fill-opacity="1"></path></g></g><g><g transform="matrix(1,0,0,1,140.66669921875,51.9)"><path transform="matrix(0.0119,0,0,-0.0119,0,0)" d="M385 458C342 475 313 482 284 482C209 482 121 394 103 374C63 327 24 181 24 78C24 19 36 -11 60 -11C82 -11 101 -3 133 19C180 51 259 121 308 209L232 -205C227 -229 217 -249 205 -262L214 -276C245 -268 276 -262 300 -259C304 -205 310 -150 319 -100L405 356C416 417 422 443 432 474L418 480ZM118 59C104 59 96 80 96 113C96 209 139 359 181 409C193 424 222 433 254 433C282 433 303 427 351 406L330 311C301 174 160 59 118 59Z" stroke="rgb(0,0,0)" stroke-opacity="1" stroke-width="8" fill="rgb(0,0,0)" fill-opacity="1"></path></g></g><g><g><g><g><g transform="matrix(1,0,0,1,146.520849609375,54.66334960937509)"><path transform="matrix(0.00833,0,0,-0.00833,0,0)" d="M525 42C469 42 464 125 465 166C466 251 494 333 537 405L599 418C602 435 608 452 613 467C459 461 300 463 145 466C80 467 66 389 47 340C46 332 59 331 63 328L63 332C106 395 130 405 205 405L228 405C188 266 161 129 98 -2L98 -12C118 -6 153 1 170 13C211 141 240 274 268 405L495 405C438 318 397 213 395 108C395 59 410 -15 471 -15C512 -15 568 25 598 51L598 66L586 66L586 67C568 56 548 42 525 42Z" stroke="rgb(0,0,0)" stroke-opacity="1" stroke-width="8" fill="rgb(0,0,0)" fill-opacity="1"></path></g></g></g></g></g></g></g><g><g><g><g transform="matrix(1,0,0,1,95.66669921875001,86.9)"><path transform="matrix(0.0119,0,0,-0.0119,0,0)" d="M525 42C469 42 464 125 465 166C466 251 494 333 537 405L599 418C602 435 608 452 613 467C459 461 300 463 145 466C80 467 66 389 47 340C46 332 59 331 63 328L63 332C106 395 130 405 205 405L228 405C188 266 161 129 98 -2L98 -12C118 -6 153 1 170 13C211 141 240 274 268 405L495 405C438 318 397 213 395 108C395 59 410 -15 471 -15C512 -15 568 25 598 51L598 66L586 66L586 67C568 56 548 42 525 42Z" stroke="rgb(0,0,0)" stroke-opacity="1" stroke-width="8" fill="rgb(0,0,0)" fill-opacity="1"></path></g></g><g><g transform="matrix(1,0,0,1,107,86.9)"><path transform="matrix(0.0119,0,0,-0.0119,0,0)" d="M997 272L791 486L758 452L883 300L859 300C734 300 653 182 546 182C407 182 351 420 179 420C104 420 45 371 -3 317L-3 227C43 282 101 361 180 361C318 361 375 123 547 123C673 123 754 243 860 243L883 243L758 89L791 55Z" stroke="rgb(0,0,0)" stroke-opacity="1" stroke-width="8" fill="rgb(0,0,0)" fill-opacity="1"></path></g></g><g><g transform="matrix(1,0,0,1,123.1875,86.9)"><path transform="matrix(0.0119,0,0,-0.0119,0,0)" d="M275 482C208 482 55 419 55 259C55 182 100 136 177 136C185 136 196 136 207 137L166 99C150 84 139 66 139 52C139 42 146 31 160 19C91 -4 -37 -48 -37 -159C-37 -230 33 -276 142 -276C271 -276 384 -204 384 -121C384 -85 363 -49 320 -14L260 35C226 62 213 81 213 100C213 114 228 128 240 146C338 170 409 253 409 342C409 357 406 376 405 380C422 378 430 378 439 378C456 378 466 379 489 382L498 427L495 433C467 426 447 424 393 424C393 425 369 482 275 482ZM176 1L253 -58C299 -94 318 -121 318 -154C318 -206 249 -248 166 -248C84 -248 27 -206 27 -145C27 -43 137 -11 176 1ZM250 448C308 448 337 412 337 341C337 238 289 168 219 168C158 168 126 209 126 288C126 383 177 448 250 448ZM867 365C870 403 875 435 883 476C872 481 868 482 863 482C832 482 801 458 765 407C726 351 687 291 671 256L703 408C707 425 709 438 709 450C709 470 701 482 686 482C665 482 627 461 553 408L525 388L532 368L564 389C592 407 603 412 612 412C622 412 629 403 629 390C629 332 586 126 546 -2L556 -9C571 -4 587 -1 610 4L623 6L649 126C667 209 690 262 734 319C768 363 795 384 817 384C832 384 842 379 853 365ZM1215 111L1191 94C1138 56 1090 36 1054 36C1007 36 978 73 978 133C978 158 981 185 986 214C1003 218 1112 248 1137 259C1222 296 1261 342 1261 404C1261 451 1227 482 1177 482C1109 496 999 423 962 349C932 299 902 180 902 113C902 35 946 -11 1018 -11C1075 -11 1131 17 1223 92ZM1000 274C1017 343 1037 386 1066 412C1084 428 1115 440 1139 440C1168 440 1187 420 1187 388C1187 344 1152 297 1100 272C1072 258 1036 247 991 237ZM1603 111L1579 94C1526 56 1478 36 1442 36C1395 36 1366 73 1366 133C1366 158 1369 185 1374 214C1391 218 1500 248 1525 259C1610 296 1649 342 1649 404C1649 451 1615 482 1565 482C1497 496 1387 423 1350 349C1320 299 1290 180 1290 113C1290 35 1334 -11 1406 -11C1463 -11 1519 17 1611 92ZM1388 274C1405 343 1425 386 1454 412C1472 428 1503 440 1527 440C1556 440 1575 420 1575 388C1575 344 1540 297 1488 272C1460 258 1424 247 1379 237ZM2146 722L2134 733C2082 707 2046 698 1974 691L1970 670L2018 670C2042 670 2052 663 2052 646C2052 638 2051 629 2050 622L2022 468C1992 477 1965 482 1940 482C1871 482 1777 410 1731 323C1700 265 1680 170 1680 86C1680 21 1695 -11 1724 -11C1751 -11 1788 6 1822 33C1876 77 1909 116 1976 217L1953 126C1942 82 1937 50 1937 24C1937 3 1946 -9 1963 -9C1980 -9 2004 3 2038 28L2119 88L2109 107L2065 76C2051 66 2035 59 2026 59C2018 59 2012 68 2012 82C2012 90 2013 99 2020 128ZM1777 59C1761 59 1752 73 1752 98C1752 224 1798 380 1847 418C1860 428 1879 433 1906 433C1950 433 1979 427 2012 410L2000 351C1963 171 1822 59 1777 59ZM2155 -180C2154 -187 2154 -193 2154 -198C2154 -241 2191 -276 2236 -276C2342 -276 2452 -152 2511 33L2652 473L2641 482C2612 471 2589 465 2567 463L2532 331C2520 284 2485 211 2452 162C2417 111 2368 67 2346 67C2334 67 2325 90 2326 115L2342 322C2344 353 2346 391 2346 419C2346 464 2339 482 2322 482C2309 482 2295 475 2247 442L2165 386L2176 368L2226 398C2231 401 2242 410 2251 410C2265 410 2273 391 2273 358C2273 357 2273 351 2272 343L2255 100L2254 60C2254 18 2272 -11 2297 -11C2334 -11 2418 74 2493 187L2444 16C2393 -161 2343 -234 2273 -234C2238 -234 2211 -207 2211 -172C2211 -167 2212 -159 2213 -150L2203 -146Z" stroke="rgb(0,0,0)" stroke-opacity="1" stroke-width="8" fill="rgb(0,0,0)" fill-opacity="1"></path></g></g><g><g transform="matrix(1,0,0,1,154.84375,87.56667480468755)"><path transform="matrix(0.0119,0,0,-0.0119,0,0)" d="M146 266C146 526 243 632 301 700L282 726C225 675 60 542 60 266C60 159 85 58 133 -32C168 -99 200 -138 282 -215L301 -194C255 -137 146 -15 146 266Z" stroke="rgb(0,0,0)" stroke-opacity="1" stroke-width="8" fill="rgb(0,0,0)" fill-opacity="1"></path></g></g><g><g transform="matrix(1,0,0,1,158.802099609375,86.9)"><path transform="matrix(0.0119,0,0,-0.0119,0,0)" d="M151 -172C151 -95 175 -59 228 -59C257 -59 285 -67 324 -88L469 -164C529 -195 547 -201 587 -201C662 -201 698 -158 708 -61L683 -61C677 -115 655 -140 615 -140C598 -140 579 -135 553 -125L317 -29C292 -19 274 -15 251 -15C177 -15 126 -66 126 -142C126 -144 126 -151 127 -159ZM748 425C748 603 644 706 464 706C227 706 53 523 53 272C53 83 147 -18 323 -18C595 -18 748 207 748 425ZM660 409C660 221 571 24 360 24C216 24 141 110 141 277C141 425 199 664 433 664C549 664 660 610 660 409Z" stroke="rgb(0,0,0)" stroke-opacity="1" stroke-width="8" fill="rgb(0,0,0)" fill-opacity="1"></path></g></g><g><g transform="matrix(1,0,0,1,168.052099609375,87.56667480468755)"><path transform="matrix(0.0119,0,0,-0.0119,0,0)" d="M51 726L32 700C87 636 187 526 187 266C187 -10 83 -131 32 -194L51 -215C104 -165 273 -23 273 265C273 542 108 675 51 726Z" stroke="rgb(0,0,0)" stroke-opacity="1" stroke-width="8" fill="rgb(0,0,0)" fill-opacity="1"></path></g></g></g></g><g><g><g><g transform="matrix(1,0,0,1,101.66669921875001,30.333337402343773)"><path transform="matrix(0.015,0,0,-0.015,0,0)" d="M33 0L610 0L652 258L627 258C602 104 579 31 407 31L274 31C227 31 225 38 225 71L225 338L315 338C412 338 423 306 423 221L448 221L448 486L423 486C423 400 412 369 315 369L225 369L225 609C225 642 227 649 274 649L403 649C556 649 583 594 599 455L624 455L596 680L33 680L33 649L57 649C134 649 136 638 136 602L136 78C136 42 134 31 57 31L33 31ZM699 400C762 400 766 394 779 363L923 8C929 -6 931 -11 944 -11C957 -11 961 -2 965 8L1096 333C1105 356 1122 399 1188 400L1188 431C1165 429 1136 428 1113 428C1089 428 1043 430 1026 431L1026 400C1063 399 1074 376 1074 357C1074 348 1072 344 1068 333L966 78L854 357C848 370 848 372 848 374C848 400 887 400 905 400L905 431C875 430 819 428 796 428C769 428 729 429 699 431ZM1221 95C1221 14 1318 -11 1381 -11C1447 -11 1493 29 1512 76C1516 36 1543 -6 1590 -6C1611 -6 1672 8 1672 89L1672 145L1647 145L1647 89C1647 31 1622 25 1611 25C1578 25 1574 70 1574 75L1574 275C1574 317 1574 356 1538 393C1499 432 1449 448 1401 448C1319 448 1250 401 1250 335C1250 305 1270 288 1296 288C1324 288 1342 308 1342 334C1342 346 1337 379 1291 380C1318 415 1367 426 1399 426C1448 426 1505 387 1505 298L1505 261C1454 258 1384 255 1321 225C1246 191 1221 139 1221 95ZM1298 96C1298 151 1340 234 1505 240L1505 140C1505 45 1433 11 1388 11C1339 11 1298 46 1298 96ZM1712 0C1745 1 1798 3 1823 3C1848 3 1897 1 1934 0L1934 31C1867 31 1856 31 1856 76L1856 694L1712 683L1712 652C1782 652 1790 645 1790 596L1790 76C1790 31 1779 31 1712 31ZM1988 400C2066 400 2066 397 2066 308L2066 158C2066 80 2066 -11 2218 -11C2274 -11 2318 17 2347 79L2347 -11L2491 0L2491 31C2421 31 2413 38 2413 87L2413 442L2266 431L2266 400C2336 400 2344 393 2344 344L2344 166C2344 79 2296 11 2223 11C2139 11 2135 58 2135 110L2135 442L1988 431ZM2553 95C2553 14 2650 -11 2713 -11C2779 -11 2825 29 2844 76C2848 36 2875 -6 2922 -6C2943 -6 3004 8 3004 89L3004 145L2979 145L2979 89C2979 31 2954 25 2943 25C2910 25 2906 70 2906 75L2906 275C2906 317 2906 356 2870 393C2831 432 2781 448 2733 448C2651 448 2582 401 2582 335C2582 305 2602 288 2628 288C2656 288 2674 308 2674 334C2674 346 2669 379 2623 380C2650 415 2699 426 2731 426C2780 426 2837 387 2837 298L2837 261C2786 258 2716 255 2653 225C2578 191 2553 139 2553 95ZM2630 96C2630 151 2672 234 2837 240L2837 140C2837 45 2765 11 2720 11C2671 11 2630 46 2630 96ZM3030 400L3115 400L3115 124C3115 1 3208 -11 3244 -11C3315 -11 3343 60 3343 124L3343 181L3318 181L3318 126C3318 52 3288 14 3251 14C3184 14 3184 105 3184 122L3184 400L3327 400L3327 431L3184 431L3184 615L3159 615C3158 533 3128 426 3030 422ZM3474 616C3474 589 3496 563 3527 563C3555 563 3580 584 3580 616C3580 648 3555 669 3527 669C3496 669 3474 642 3474 616ZM3432 0C3464 1 3518 3 3542 3C3577 3 3612 1 3646 0L3646 31C3580 31 3576 36 3576 75L3576 442L3436 431L3436 400C3501 400 3510 394 3510 345L3510 76C3510 31 3499 31 3432 31ZM3704 214C3704 85 3808 -11 3925 -11C4046 -11 4147 87 4147 214C4147 342 4047 448 3926 448C3801 448 3704 339 3704 214ZM3787 222C3787 261 3787 315 3811 359C3838 405 3885 426 3925 426C3969 426 4012 404 4038 361C4064 318 4064 260 4064 222C4064 186 4064 132 4042 88C4020 43 3976 14 3926 14C3883 14 3839 35 3812 81C3787 125 3787 186 3787 222ZM4208 0C4243 1 4294 3 4321 3C4347 3 4399 1 4433 0L4433 31C4366 31 4355 31 4355 76L4355 260C4355 364 4426 420 4490 420C4553 420 4564 366 4564 309L4564 76C4564 31 4553 31 4486 31L4486 0C4521 1 4572 3 4599 3C4625 3 4677 1 4711 0L4711 31C4659 31 4634 31 4633 61L4633 252C4633 338 4633 369 4602 405C4588 422 4555 442 4497 442C4424 442 4377 399 4349 337L4349 442L4208 431L4208 400C4278 400 4286 393 4286 344L4286 76C4286 31 4275 31 4208 31Z" stroke="rgb(0,0,0)" stroke-opacity="1" stroke-width="8" fill="rgb(0,0,0)" fill-opacity="1"></path></g></g></g></g><g><g><g><g transform="matrix(1,0,0,1,95.66669921875001,120.33334960937509)"><path transform="matrix(0.015,0,0,-0.015,0,0)" d="M28 0C63 3 142 3 180 3C219 3 298 3 333 0L333 31L307 31C228 31 225 42 225 78L225 605C225 641 228 652 307 652L333 652L333 683C298 680 219 680 181 680C142 680 63 680 28 683L28 652L54 652C133 652 136 641 136 605L136 78C136 42 133 31 54 31L28 31ZM393 0C428 1 479 3 506 3C532 3 584 1 618 0L618 31C551 31 540 31 540 76L540 260C540 364 611 420 675 420C738 420 749 366 749 309L749 76C749 31 738 31 671 31L671 0C706 1 757 3 784 3C810 3 862 1 896 0L896 31C829 31 818 31 818 76L818 260C818 364 889 420 953 420C1016 420 1027 366 1027 309L1027 76C1027 31 1016 31 949 31L949 0C984 1 1035 3 1062 3C1088 3 1140 1 1174 0L1174 31C1122 31 1097 31 1096 61L1096 252C1096 338 1096 369 1065 405C1051 422 1018 442 960 442C876 442 832 382 815 344C801 431 727 442 682 442C609 442 562 399 534 337L534 442L393 431L393 400C463 400 471 393 471 344L471 76C471 31 460 31 393 31ZM1222 -163L1222 -194C1256 -193 1308 -191 1334 -191C1361 -191 1412 -193 1447 -194L1447 -163C1380 -163 1369 -163 1369 -118L1369 50L1369 59C1374 43 1416 -11 1492 -11C1611 -11 1715 87 1715 216C1715 343 1618 442 1506 442C1428 442 1386 398 1366 376L1366 442L1222 431L1222 400C1293 400 1300 394 1300 350L1300 -118C1300 -163 1289 -163 1222 -163ZM1369 114L1369 337C1398 388 1447 417 1498 417C1571 417 1632 329 1632 216C1632 95 1562 11 1488 11C1448 11 1410 31 1383 72C1369 93 1369 94 1369 114ZM1777 0C1816 1 1863 3 1891 3C1931 3 1978 3 2018 0L2018 31L1997 31C1923 31 1921 42 1921 78L1921 232C1921 331 1963 420 2039 420C2046 420 2048 420 2050 419C2047 418 2027 406 2027 380C2027 352 2048 337 2070 337C2088 337 2113 349 2113 381C2113 413 2082 442 2039 442C1966 442 1930 375 1916 332L1916 442L1777 431L1777 400C1847 400 1855 393 1855 344L1855 76C1855 31 1844 31 1777 31ZM2168 214C2168 85 2272 -11 2389 -11C2510 -11 2611 87 2611 214C2611 342 2511 448 2390 448C2265 448 2168 339 2168 214ZM2251 222C2251 261 2251 315 2275 359C2302 405 2349 426 2389 426C2433 426 2476 404 2502 361C2528 318 2528 260 2528 222C2528 186 2528 132 2506 88C2484 43 2440 14 2390 14C2347 14 2303 35 2276 81C2251 125 2251 186 2251 222ZM2631 400C2694 400 2698 394 2711 363L2855 8C2861 -6 2863 -11 2876 -11C2889 -11 2893 -2 2897 8L3028 333C3037 356 3054 399 3120 400L3120 431C3097 429 3068 428 3045 428C3021 428 2975 430 2958 431L2958 400C2995 399 3006 376 3006 357C3006 348 3004 344 3000 333L2898 78L2786 357C2780 370 2780 372 2780 374C2780 400 2819 400 2837 400L2837 431C2807 430 2751 428 2728 428C2701 428 2661 429 2631 431ZM3139 220C3139 86 3244 -11 3359 -11C3481 -11 3526 100 3526 119C3526 129 3518 131 3513 131C3504 131 3502 125 3500 117C3465 14 3375 14 3365 14C3315 14 3275 44 3252 81C3222 129 3222 195 3222 231L3501 231C3523 231 3526 231 3526 252C3526 351 3472 448 3347 448C3231 448 3139 345 3139 220ZM3223 252C3229 401 3313 426 3347 426C3450 426 3460 291 3460 252ZM3587 0C3622 1 3673 3 3700 3C3726 3 3778 1 3812 0L3812 31C3745 31 3734 31 3734 76L3734 260C3734 364 3805 420 3869 420C3932 420 3943 366 3943 309L3943 76C3943 31 3932 31 3865 31L3865 0C3900 1 3951 3 3978 3C4004 3 4056 1 4090 0L4090 31C4023 31 4012 31 4012 76L4012 260C4012 364 4083 420 4147 420C4210 420 4221 366 4221 309L4221 76C4221 31 4210 31 4143 31L4143 0C4178 1 4229 3 4256 3C4282 3 4334 1 4368 0L4368 31C4316 31 4291 31 4290 61L4290 252C4290 338 4290 369 4259 405C4245 422 4212 442 4154 442C4070 442 4026 382 4009 344C3995 431 3921 442 3876 442C3803 442 3756 399 3728 337L3728 442L3587 431L3587 400C3657 400 3665 393 3665 344L3665 76C3665 31 3654 31 3587 31ZM4416 220C4416 86 4521 -11 4636 -11C4758 -11 4803 100 4803 119C4803 129 4795 131 4790 131C4781 131 4779 125 4777 117C4742 14 4652 14 4642 14C4592 14 4552 44 4529 81C4499 129 4499 195 4499 231L4778 231C4800 231 4803 231 4803 252C4803 351 4749 448 4624 448C4508 448 4416 345 4416 220ZM4500 252C4506 401 4590 426 4624 426C4727 426 4737 291 4737 252ZM4864 0C4899 1 4950 3 4977 3C5003 3 5055 1 5089 0L5089 31C5022 31 5011 31 5011 76L5011 260C5011 364 5082 420 5146 420C5209 420 5220 366 5220 309L5220 76C5220 31 5209 31 5142 31L5142 0C5177 1 5228 3 5255 3C5281 3 5333 1 5367 0L5367 31C5315 31 5290 31 5289 61L5289 252C5289 338 5289 369 5258 405C5244 422 5211 442 5153 442C5080 442 5033 399 5005 337L5005 442L4864 431L4864 400C4934 400 4942 393 4942 344L4942 76C4942 31 4931 31 4864 31ZM5378 400L5463 400L5463 124C5463 1 5556 -11 5592 -11C5663 -11 5691 60 5691 124L5691 181L5666 181L5666 126C5666 52 5636 14 5599 14C5532 14 5532 105 5532 122L5532 400L5675 400L5675 431L5532 431L5532 615L5507 615C5506 533 5476 426 5378 422Z" stroke="rgb(0,0,0)" stroke-opacity="1" stroke-width="8" fill="rgb(0,0,0)" fill-opacity="1"></path></g></g></g></g></svg>
</svg>
